 <svg  version="1.0" xmlns="http://www.w3.org/2000/svg"  width="300.000000pt" height="164.000000pt" viewBox="0 0 300.000000 164.000000"  preserveAspectRatio="xMidYMid meet">  <g transform="translate(0.000000,164.000000) scale(0.100000,-0.100000)" fill="#009e66" stroke="none"> <path d="M2618 1635 c-3 -3 -99 -12 -214 -20 -115 -8 -294 -24 -399 -35 -168 -18 -249 -20 -695 -18 -524 2 -619 -2 -865 -43 -66 -10 -151 -28 -190 -39 -38 -10 -95 -26 -126 -34 -70 -19 -106 -47 -118 -91 -11 -39 -3 -78 39 -213 17 -51 30 -103 30 -117 0 -14 3 -24 8 -23 4 1 23 -13 43 -32 34 -31 36 -35 26 -71 -9 -36 1 -126 18 -171 5 -13 -4 -21 -39 -37 -37 -16 -48 -26 -53 -51 -3 -19 -14 -35 -26 -39 -33 -13 -47 -88 -35 -201 5 -52 10 -121 12 -153 2 -57 3 -58 51 -93 81 -57 155 -74 350 -80 94 -3 197 -12 229 -20 41 -10 63 -11 70 -4 13 13 26 13 26 0 0 -10 36 -50 44 -50 10 0 34 62 29 76 -3 7 -1 14 5 14 5 0 15 -21 22 -48 9 -33 15 -41 18 -27 2 11 10 29 18 39 14 21 12 23 29 -29 4 -13 9 -14 25 -5 16 9 31 7 64 -5 35 -13 48 -14 66 -5 15 8 30 9 52 1 20 -7 36 -7 48 -1 12 6 21 7 25 1 3 -6 116 -8 293 -5 158 3 456 7 662 8 222 2 405 8 448 15 106 16 295 71 310 90 30 37 44 120 53 321 39 862 29 1007 -79 1113 -58 58 -130 87 -210 87 -32 0 -61 -2 -64 -5z m-1429 -219 c127 -35 244 -125 304 -234 85 -156 88 -390 9 -595 -40 -103 -81 -164 -157 -236 -217 -202 -573 -200 -765 6 -99 105 -141 211 -155 388 -21 262 119 541 320 636 119 56 308 71 444 35z m1123 4 c124 -38 223 -131 254 -237 28 -95 -4 -163 -76 -163 -46 0 -70 24 -81 85 -12 64 -44 101 -117 137 -55 27 -75 32 -145 32 -144 2 -224 -39 -247 -124 -26 -98 48 -158 320 -255 183 -66 287 -131 326 -207 58 -112 25 -267 -77 -363 -98 -92 -212 -129 -374 -123 -98 4 -118 8 -178 35 -134 63 -216 176 -220 304 -1 56 1 64 26 85 34 29 85 31 113 5 11 -10 26 -43 33 -74 20 -93 75 -153 160 -177 46 -13 176 -13 222 0 88 25 149 94 149 170 0 76 -40 104 -270 185 -240 84 -326 139 -377 239 -38 73 -39 180 -1 251 48 92 141 165 253 201 65 21 232 17 307 -6z"/> <path d="M862 1243 c-59 -21 -161 -118 -200 -191 -47 -88 -65 -178 -59 -297 6 -132 32 -201 101 -271 73 -72 142 -98 266 -99 88 0 101 3 161 32 146 72 227 201 249 397 23 199 -64 369 -216 426 -68 25 -235 27 -302 3z"/> </g> </svg> 