<?xml version="1.0" standalone="no"?>
<!DOCTYPE svg PUBLIC "-//W3C//DTD SVG 20010904//EN"
 "http://www.w3.org/TR/2001/REC-SVG-20010904/DTD/svg10.dtd">
<svg version="1.0" xmlns="http://www.w3.org/2000/svg"
 width="300.000000pt" height="317.000000pt" viewBox="0 0 300.000000 317.000000"
 preserveAspectRatio="xMidYMid meet">
<metadata>
Created by potrace 1.10, written by Peter Selinger 2001-2011
</metadata>
<g transform="translate(0.000000,317.000000) scale(0.100000,-0.100000)"
fill="#009e66" stroke="none">
<path d="M1312 3149 c-371 -35 -697 -215 -914 -503 l-61 -81 232 -3 233 -2 46
38 c185 153 390 222 654 222 252 0 482 -77 643 -215 l54 -45 232 2 232 3 -61
81 c-287 381 -738 557 -1290 503z"/>
<path d="M90 1585 l0 -875 1410 0 1410 0 0 875 0 875 -1410 0 -1410 0 0 -875z
m2790 5 l0 -840 -1380 0 -1380 0 0 840 0 840 1380 0 1380 0 0 -840z"/>
<path d="M210 1590 l0 -750 1290 0 1290 0 0 750 0 750 -1290 0 -1290 0 0 -750z
m817 624 c165 -34 294 -131 366 -275 50 -100 68 -173 74 -305 15 -301 -100
-529 -319 -629 -115 -53 -239 -66 -374 -40 -116 22 -194 63 -273 142 -125 127
-174 262 -174 483 0 105 5 152 21 211 85 316 356 480 679 413z m1286 1 c86
-18 168 -55 225 -102 53 -43 124 -131 120 -149 -2 -7 -29 -33 -62 -58 l-58
-45 -44 59 c-85 115 -170 155 -329 154 -82 0 -109 -4 -150 -22 -63 -29 -83
-48 -106 -97 -24 -51 -23 -99 0 -152 30 -64 79 -87 300 -137 105 -25 208 -50
229 -57 121 -39 198 -110 226 -207 20 -71 20 -101 2 -169 -39 -147 -167 -244
-361 -273 -199 -30 -405 26 -535 146 -54 51 -108 120 -99 129 2 2 33 26 67 54
l64 50 34 -51 c89 -131 229 -196 404 -185 193 11 286 91 267 229 -3 25 -16 51
-34 70 -48 51 -55 53 -348 119 -152 34 -260 78 -313 128 -18 17 -44 56 -59 86
-22 49 -25 66 -21 138 3 59 10 95 27 130 83 170 321 262 554 212z"/>
<path d="M804 2070 c-135 -29 -232 -119 -285 -265 -19 -51 -22 -82 -23 -205
-1 -170 18 -249 81 -340 127 -181 416 -213 582 -64 60 54 116 159 132 249 16
84 6 297 -17 360 -39 113 -115 199 -213 242 -61 27 -186 38 -257 23z"/>
<path d="M357 593 c101 -163 300 -337 492 -433 87 -43 249 -95 363 -116 130
-25 446 -24 578 0 334 61 618 232 812 490 l61 81 -232 3 -233 2 -46 -39 c-116
-96 -246 -160 -403 -198 -58 -14 -114 -18 -254 -17 -160 1 -191 4 -275 26
-125 34 -236 88 -337 165 l-83 63 -230 0 -230 0 17 -27z"/>
</g>
</svg>
